<?xml version="1.0" encoding="UTF-8" standalone="no"?>
<svg
   viewBox="0 0 100 100"
   fill="white"
   width="80px"
   height="80px"
   class="dNWARe"
   version="1.1"
   id="svg8"
   sodipodi:docname="nothing_found.svg"
   inkscape:version="1.1.1 (3bf5ae0d25, 2021-09-20)"
   xmlns:inkscape="http://www.inkscape.org/namespaces/inkscape"
   xmlns:sodipodi="http://sodipodi.sourceforge.net/DTD/sodipodi-0.dtd"
   xmlns="http://www.w3.org/2000/svg"
   xmlns:svg="http://www.w3.org/2000/svg">
  <defs
     id="defs12" />
  <sodipodi:namedview
     id="namedview10"
     pagecolor="#ffffff"
     bordercolor="#666666"
     borderopacity="1.0"
     inkscape:pageshadow="2"
     inkscape:pageopacity="0.0"
     inkscape:pagecheckerboard="0"
     showgrid="false"
     inkscape:zoom="2.9"
     inkscape:cx="67.241379"
     inkscape:cy="37.586207"
     inkscape:window-width="1366"
     inkscape:window-height="699"
     inkscape:window-x="0"
     inkscape:window-y="0"
     inkscape:window-maximized="1"
     inkscape:current-layer="svg8" />
  <circle
     cx="50%"
     cy="50%"
     r="50"
     fill="#BDC1C6"
     width="100%"
     height="100%"
     id="circle2" />
  <path
     d="M0 0h48v48H0z"
     fill="none"
     id="path6" />
  <g
     style="fill:#ffffff;fill-opacity:1"
     id="g841"
     transform="matrix(1.75,0,0,1.75,-21.78765,0.066809)">
    <path
       d="m 49.021514,18.533252 h -16 c -1.1,0 -1.99,0.9 -1.99,2 l -0.01,18 4,-4 h 14 c 1.1,0 2,-0.9 2,-2 v -12 c 0,-1.1 -0.9,-2 -2,-2 z m 0,14 h -14.83 l -0.59,0.59 -0.58,0.58 v -13.17 h 16 z m -9,-4 h 2 v 2 h -2 z m 0,-6 h 2 v 4 h -2 z"
       id="path831"
       style="fill:#ffffff;fill-opacity:1" />
  </g>
</svg>
