<svg viewBox="0 0 24 24" version="1.1" id="svg4" inkscape:version="1.1.1 (3bf5ae0d25, 2021-09-20)" xmlns:inkscape="http://www.inkscape.org/namespaces/inkscape" xmlns:sodipodi="http://sodipodi.sourceforge.net/DTD/sodipodi-0.dtd" xmlns="http://www.w3.org/2000/svg" xmlns:svg="http://www.w3.org/2000/svg">
  <defs id="defs8" />
  <path fill="#6563ff" d="m 12.43,4.1 c -0.330616,-0.1430349 -0.712612,-0.097195 -1,0.12 L 6.65,8 H 3 C 2.4477153,8 2,8.4477153 2,9 v 6 c 0,0.552285 0.4477153,1 1,1 h 3.65 l 4.73,3.78 c 0.175939,0.141161 0.394436,0.218692 0.62,0.22 0.149369,0.0025 0.297048,-0.03188 0.43,-0.1 C 12.777284,19.734597 12.998911,19.384659 13,19 V 5 C 12.998911,4.6153406 12.777284,4.2654027 12.43,4.1 Z M 11,16.92 7.62,14.22 C 7.4440607,14.078839 7.2255642,14.001308 7,14 H 4 V 10 H 7 C 7.2255642,9.9986916 7.4440607,9.9211606 7.62,9.78 L 11,7.08 Z" id="path2" sodipodi:nodetypes="cccsssscccccccccccccccc"/>
</svg>
